<svg width="160" height="160" viewBox="0 0 160 160" fill="none" xmlns="http://www.w3.org/2000/svg">
<path d="M44.2897 0.871094H39.4648V5.69606H44.2897V0.871094Z" fill="#4B4B4B"/>
<path d="M49.1217 0.871094H44.2969V5.69606H49.1217V0.871094Z" fill="#4B4B4B"/>
<path d="M53.9362 0.871094H49.1113V5.69606H53.9362V0.871094Z" fill="#4B4B4B"/>
<path d="M68.4186 0.871094H63.5938V5.69606H68.4186V0.871094Z" fill="#4B4B4B"/>
<path d="M73.243 0.871094H68.418V5.69606H73.243V0.871094Z" fill="#4B4B4B"/>
<path d="M81.9264 0.871094H77.1016V5.69606H81.9264V0.871094Z" fill="#4B4B4B"/>
<path d="M91.5827 0.871094H86.7578V5.69606H91.5827V0.871094Z" fill="#4B4B4B"/>
<path d="M101.223 0.871094H96.3984V5.69606H101.223V0.871094Z" fill="#4B4B4B"/>
<path d="M106.051 0.871094H101.227V5.69606H106.051V0.871094Z" fill="#4B4B4B"/>
<path d="M115.71 0.871094H110.885V5.69606H115.71V0.871094Z" fill="#4B4B4B"/>
<path d="M120.522 0.869629H115.697V5.6946H120.522V0.869629Z" fill="#4B4B4B"/>
<path d="M44.2897 5.69531H39.4648V10.5203H44.2897V5.69531Z" fill="#4B4B4B"/>
<path d="M49.1217 5.69531H44.2969V10.5203H49.1217V5.69531Z" fill="#4B4B4B"/>
<path d="M53.9362 5.69531H49.1113V10.5203H53.9362V5.69531Z" fill="#4B4B4B"/>
<path d="M86.7547 5.69531H81.9297V10.5203H86.7547V5.69531Z" fill="#4B4B4B"/>
<path d="M96.3993 5.69531H91.5742V10.5203H96.3993V5.69531Z" fill="#4B4B4B"/>
<path d="M120.522 5.69531H115.697V10.5203H120.522V5.69531Z" fill="#4B4B4B"/>
<path d="M44.2917 10.5195H39.4668V15.3445H44.2917V10.5195Z" fill="#4B4B4B"/>
<path d="M49.1217 10.5195H44.2969V15.3445H49.1217V10.5195Z" fill="#4B4B4B"/>
<path d="M53.9362 10.5195H49.1113V15.3445H53.9362V10.5195Z" fill="#4B4B4B"/>
<path d="M58.7643 10.5195H53.9395V15.3445H58.7643V10.5195Z" fill="#4B4B4B"/>
<path d="M73.243 10.5195H68.418V15.3445H73.243V10.5195Z" fill="#4B4B4B"/>
<path d="M77.11 10.5195H72.2852V15.3445H77.11V10.5195Z" fill="#4B4B4B"/>
<path d="M81.9264 10.5195H77.1016V15.3445H81.9264V10.5195Z" fill="#4B4B4B"/>
<path d="M86.7547 10.5195H81.9297V15.3445H86.7547V10.5195Z" fill="#4B4B4B"/>
<path d="M91.5827 10.5195H86.7578V15.3445H91.5827V10.5195Z" fill="#4B4B4B"/>
<path d="M106.051 10.5195H101.227V15.3445H106.051V10.5195Z" fill="#4B4B4B"/>
<path d="M115.71 10.5195H110.885V15.3445H115.71V10.5195Z" fill="#4B4B4B"/>
<path d="M120.522 10.5195H115.697V15.3445H120.522V10.5195Z" fill="#4B4B4B"/>
<path d="M49.1217 15.3438H44.2969V20.1687H49.1217V15.3438Z" fill="#4B4B4B"/>
<path d="M68.4186 15.3438H63.5938V20.1687H68.4186V15.3438Z" fill="#4B4B4B"/>
<path d="M77.11 15.3438H72.2852V20.1687H77.11V15.3438Z" fill="#4B4B4B"/>
<path d="M86.7547 15.3457H81.9297V20.1707H86.7547V15.3457Z" fill="#4B4B4B"/>
<path d="M96.3993 15.3438H91.5742V20.1687H96.3993V15.3438Z" fill="#4B4B4B"/>
<path d="M110.889 15.3438H106.064V20.1687H110.889V15.3438Z" fill="#4B4B4B"/>
<path d="M115.71 15.3438H110.885V20.1687H115.71V15.3438Z" fill="#4B4B4B"/>
<path d="M120.522 15.3457H115.697V20.1707H120.522V15.3457Z" fill="#4B4B4B"/>
<path d="M49.1217 20.1724H44.2969V24.9974H49.1217V20.1724Z" fill="#4B4B4B"/>
<path d="M53.9362 20.1724H49.1113V24.9974H53.9362V20.1724Z" fill="#4B4B4B"/>
<path d="M63.6003 20.1724H58.7754V24.9974H63.6003V20.1724Z" fill="#4B4B4B"/>
<path d="M68.4186 20.1724H63.5938V24.9974H68.4186V20.1724Z" fill="#4B4B4B"/>
<path d="M77.1102 20.1724H72.2852V24.9974H77.1102V20.1724Z" fill="#4B4B4B"/>
<path d="M86.7546 20.1724H81.9297V24.9974H86.7546V20.1724Z" fill="#4B4B4B"/>
<path d="M91.5827 20.1724H86.7578V24.9974H91.5827V20.1724Z" fill="#4B4B4B"/>
<path d="M101.221 20.1724H96.3965V24.9974H101.221V20.1724Z" fill="#4B4B4B"/>
<path d="M106.051 20.1724H101.227V24.9974H106.051V20.1724Z" fill="#4B4B4B"/>
<path d="M110.889 20.1724H106.064V24.9974H110.889V20.1724Z" fill="#4B4B4B"/>
<path d="M44.2897 24.9956H39.4648V29.8205H44.2897V24.9956Z" fill="#4B4B4B"/>
<path d="M49.1217 24.9956H44.2969V29.8205H49.1217V24.9956Z" fill="#4B4B4B"/>
<path d="M53.9362 24.9956H49.1113V29.8205H53.9362V24.9956Z" fill="#4B4B4B"/>
<path d="M68.4186 24.9956H63.5938V29.8205H68.4186V24.9956Z" fill="#4B4B4B"/>
<path d="M77.1102 24.9956H72.2852V29.8205H77.1102V24.9956Z" fill="#4B4B4B"/>
<path d="M86.7547 24.998H81.9297V29.8231H86.7547V24.998Z" fill="#4B4B4B"/>
<path d="M96.3993 24.9956H91.5742V29.8205H96.3993V24.9956Z" fill="#4B4B4B"/>
<path d="M106.051 24.9956H101.227V29.8205H106.051V24.9956Z" fill="#4B4B4B"/>
<path d="M115.71 24.9956H110.885V29.8205H115.71V24.9956Z" fill="#4B4B4B"/>
<path d="M120.522 24.9956H115.697V29.8205H120.522V24.9956Z" fill="#4B4B4B"/>
<path d="M44.2897 29.8208H39.4648V34.6457H44.2897V29.8208Z" fill="#4B4B4B"/>
<path d="M53.9362 29.8208H49.1113V34.6457H53.9362V29.8208Z" fill="#4B4B4B"/>
<path d="M63.6003 29.8208H58.7754V34.6457H63.6003V29.8208Z" fill="#4B4B4B"/>
<path d="M73.243 29.8208H68.418V34.6457H73.243V29.8208Z" fill="#4B4B4B"/>
<path d="M81.9264 29.8208H77.1016V34.6457H81.9264V29.8208Z" fill="#4B4B4B"/>
<path d="M91.5827 29.8208H86.7578V34.6457H91.5827V29.8208Z" fill="#4B4B4B"/>
<path d="M101.221 29.8208H96.3965V34.6457H101.221V29.8208Z" fill="#4B4B4B"/>
<path d="M110.889 29.8208H106.064V34.6457H110.889V29.8208Z" fill="#4B4B4B"/>
<path d="M120.522 29.8208H115.697V34.6457H120.522V29.8208Z" fill="#4B4B4B"/>
<path d="M44.2897 34.647H39.4648V39.4718H44.2897V34.647Z" fill="#4B4B4B"/>
<path d="M53.9362 34.647H49.1113V39.4718H53.9362V34.647Z" fill="#4B4B4B"/>
<path d="M58.7643 34.647H53.9395V39.4718H58.7643V34.647Z" fill="#4B4B4B"/>
<path d="M63.6003 34.647H58.7754V39.4718H63.6003V34.647Z" fill="#4B4B4B"/>
<path d="M73.243 34.647H68.418V39.4718H73.243V34.647Z" fill="#4B4B4B"/>
<path d="M106.051 34.647H101.227V39.4718H106.051V34.647Z" fill="#4B4B4B"/>
<path d="M110.889 34.647H106.064V39.4718H110.889V34.647Z" fill="#4B4B4B"/>
<path d="M115.71 34.647H110.885V39.4718H115.71V34.647Z" fill="#4B4B4B"/>
<path d="M15.3542 39.4712H10.5293V44.2962H15.3542V39.4712Z" fill="#4B4B4B"/>
<path d="M20.157 39.4712H15.332V44.2962H20.157V39.4712Z" fill="#4B4B4B"/>
<path d="M24.995 39.4712H20.1699V44.2962H24.995V39.4712Z" fill="#4B4B4B"/>
<path d="M34.651 39.4712H29.8262V44.2962H34.651V39.4712Z" fill="#4B4B4B"/>
<path d="M44.2897 39.4712H39.4648V44.2962H44.2897V39.4712Z" fill="#4B4B4B"/>
<path d="M63.6003 39.4712H58.7754V44.2962H63.6003V39.4712Z" fill="#4B4B4B"/>
<path d="M68.4186 39.4712H63.5938V44.2962H68.4186V39.4712Z" fill="#4B4B4B"/>
<path d="M73.243 39.4712H68.418V44.2962H73.243V39.4712Z" fill="#4B4B4B"/>
<path d="M91.5827 39.4712H86.7578V44.2962H91.5827V39.4712Z" fill="#4B4B4B"/>
<path d="M96.3993 39.4712H91.5742V44.2962H96.3993V39.4712Z" fill="#4B4B4B"/>
<path d="M110.889 39.4712H106.064V44.2962H110.889V39.4712Z" fill="#4B4B4B"/>
<path d="M115.71 39.4712H110.885V44.2962H115.71V39.4712Z" fill="#4B4B4B"/>
<path d="M120.522 39.4712H115.697V44.2962H120.522V39.4712Z" fill="#4B4B4B"/>
<path d="M125.35 39.4712H120.525V44.2962H125.35V39.4712Z" fill="#4B4B4B"/>
<path d="M130.178 39.4712H125.354V44.2962H130.178V39.4712Z" fill="#4B4B4B"/>
<path d="M134.995 39.4712H130.17V44.2962H134.995V39.4712Z" fill="#4B4B4B"/>
<path d="M149.475 39.4712H144.65V44.2962H149.475V39.4712Z" fill="#4B4B4B"/>
<path d="M154.304 39.4712H149.479V44.2962H154.304V39.4712Z" fill="#4B4B4B"/>
<path d="M159.128 39.4712H154.303V44.2962H159.128V39.4712Z" fill="#4B4B4B"/>
<path d="M10.5124 44.2949H5.6875V49.12H10.5124V44.2949Z" fill="#4B4B4B"/>
<path d="M15.3542 44.2949H10.5293V49.12H15.3542V44.2949Z" fill="#4B4B4B"/>
<path d="M20.157 44.2949H15.332V49.12H20.157V44.2949Z" fill="#4B4B4B"/>
<path d="M24.995 44.2949H20.1699V49.12H24.995V44.2949Z" fill="#4B4B4B"/>
<path d="M29.8229 44.2949H24.998V49.12H29.8229V44.2949Z" fill="#4B4B4B"/>
<path d="M49.1217 44.2949H44.2969V49.12H49.1217V44.2949Z" fill="#4B4B4B"/>
<path d="M53.9362 44.2949H49.1113V49.12H53.9362V44.2949Z" fill="#4B4B4B"/>
<path d="M58.7643 44.2949H53.9395V49.12H58.7643V44.2949Z" fill="#4B4B4B"/>
<path d="M63.6003 44.2949H58.7754V49.12H63.6003V44.2949Z" fill="#4B4B4B"/>
<path d="M68.4186 44.2949H63.5938V49.12H68.4186V44.2949Z" fill="#4B4B4B"/>
<path d="M77.11 44.2949H72.2852V49.12H77.11V44.2949Z" fill="#4B4B4B"/>
<path d="M81.9264 44.2949H77.1016V49.12H81.9264V44.2949Z" fill="#4B4B4B"/>
<path d="M96.3993 44.2949H91.5742V49.12H96.3993V44.2949Z" fill="#4B4B4B"/>
<path d="M106.051 44.2949H101.227V49.12H106.051V44.2949Z" fill="#4B4B4B"/>
<path d="M115.71 44.2949H110.885V49.12H115.71V44.2949Z" fill="#4B4B4B"/>
<path d="M125.35 44.2949H120.525V49.12H125.35V44.2949Z" fill="#4B4B4B"/>
<path d="M130.178 44.2949H125.354V49.12H130.178V44.2949Z" fill="#4B4B4B"/>
<path d="M144.649 44.2949H139.824V49.12H144.649V44.2949Z" fill="#4B4B4B"/>
<path d="M149.475 44.2949H144.65V49.12H149.475V44.2949Z" fill="#4B4B4B"/>
<path d="M159.128 44.2949H154.303V49.12H159.128V44.2949Z" fill="#4B4B4B"/>
<path d="M5.69796 49.1211H0.873047V53.9461H5.69796V49.1211Z" fill="#4B4B4B"/>
<path d="M10.5124 49.1211H5.6875V53.9461H10.5124V49.1211Z" fill="#4B4B4B"/>
<path d="M15.3542 49.1211H10.5293V53.9461H15.3542V49.1211Z" fill="#4B4B4B"/>
<path d="M24.995 49.1211H20.1699V53.9461H24.995V49.1211Z" fill="#4B4B4B"/>
<path d="M34.651 49.1211H29.8262V53.9461H34.651V49.1211Z" fill="#4B4B4B"/>
<path d="M44.2897 49.1211H39.4648V53.9461H44.2897V49.1211Z" fill="#4B4B4B"/>
<path d="M49.1217 49.1211H44.2969V53.9461H49.1217V49.1211Z" fill="#4B4B4B"/>
<path d="M63.6003 49.1211H58.7754V53.9461H63.6003V49.1211Z" fill="#4B4B4B"/>
<path d="M77.11 49.1211H72.2852V53.9461H77.11V49.1211Z" fill="#4B4B4B"/>
<path d="M81.9264 49.1211H77.1016V53.9461H81.9264V49.1211Z" fill="#4B4B4B"/>
<path d="M101.223 49.1211H96.3984V53.9461H101.223V49.1211Z" fill="#4B4B4B"/>
<path d="M106.051 49.1211H101.227V53.9461H106.051V49.1211Z" fill="#4B4B4B"/>
<path d="M125.35 49.1211H120.525V53.9461H125.35V49.1211Z" fill="#4B4B4B"/>
<path d="M134.995 49.1211H130.17V53.9461H134.995V49.1211Z" fill="#4B4B4B"/>
<path d="M149.475 49.1211H144.65V53.9461H149.475V49.1211Z" fill="#4B4B4B"/>
<path d="M154.304 49.1211H149.479V53.9461H154.304V49.1211Z" fill="#4B4B4B"/>
<path d="M5.69796 53.9463H0.873047V58.7713H5.69796V53.9463Z" fill="#4B4B4B"/>
<path d="M15.3542 53.9443H10.5293V58.7692H15.3542V53.9443Z" fill="#4B4B4B"/>
<path d="M20.157 53.9443H15.332V58.7692H20.157V53.9443Z" fill="#4B4B4B"/>
<path d="M29.8231 53.9443H24.998V58.7692H29.8231V53.9443Z" fill="#4B4B4B"/>
<path d="M63.6003 53.9443H58.7754V58.7692H63.6003V53.9443Z" fill="#4B4B4B"/>
<path d="M77.11 53.9443H72.2852V58.7692H77.11V53.9443Z" fill="#4B4B4B"/>
<path d="M81.9264 53.9443H77.1016V58.7692H81.9264V53.9443Z" fill="#4B4B4B"/>
<path d="M86.7547 53.9463H81.9297V58.7713H86.7547V53.9463Z" fill="#4B4B4B"/>
<path d="M96.3993 53.9443H91.5742V58.7692H96.3993V53.9443Z" fill="#4B4B4B"/>
<path d="M101.223 53.9443H96.3984V58.7692H101.223V53.9443Z" fill="#4B4B4B"/>
<path d="M106.051 53.9443H101.227V58.7692H106.051V53.9443Z" fill="#4B4B4B"/>
<path d="M110.889 53.9443H106.064V58.7692H110.889V53.9443Z" fill="#4B4B4B"/>
<path d="M115.71 53.9443H110.885V58.7692H115.71V53.9443Z" fill="#4B4B4B"/>
<path d="M144.649 53.9443H139.824V58.7692H144.649V53.9443Z" fill="#4B4B4B"/>
<path d="M149.475 53.9443H144.65V58.7692H149.475V53.9443Z" fill="#4B4B4B"/>
<path d="M159.128 53.9463H154.303V58.7713H159.128V53.9463Z" fill="#4B4B4B"/>
<path d="M5.69796 58.7705H0.873047V63.5954H5.69796V58.7705Z" fill="#4B4B4B"/>
<path d="M15.3542 58.7705H10.5293V63.5954H15.3542V58.7705Z" fill="#4B4B4B"/>
<path d="M20.157 58.772H15.332V63.597H20.157V58.772Z" fill="#4B4B4B"/>
<path d="M34.6512 58.7705H29.8262V63.5954H34.6512V58.7705Z" fill="#4B4B4B"/>
<path d="M49.1217 58.7705H44.2969V63.5954H49.1217V58.7705Z" fill="#4B4B4B"/>
<path d="M58.7643 58.7705H53.9395V63.5954H58.7643V58.7705Z" fill="#4B4B4B"/>
<path d="M63.6003 58.7705H58.7754V63.5954H63.6003V58.7705Z" fill="#4B4B4B"/>
<path d="M68.4186 58.7705H63.5938V63.5954H68.4186V58.7705Z" fill="#4B4B4B"/>
<path d="M77.11 58.7705H72.2852V63.5954H77.11V58.7705Z" fill="#4B4B4B"/>
<path d="M81.9264 58.7705H77.1016V63.5954H81.9264V58.7705Z" fill="#4B4B4B"/>
<path d="M91.5827 58.7705H86.7578V63.5954H91.5827V58.7705Z" fill="#4B4B4B"/>
<path d="M96.3993 58.7705H91.5742V63.5954H96.3993V58.7705Z" fill="#4B4B4B"/>
<path d="M101.223 58.772H96.3984V63.597H101.223V58.772Z" fill="#4B4B4B"/>
<path d="M106.051 58.7705H101.227V63.5954H106.051V58.7705Z" fill="#4B4B4B"/>
<path d="M115.71 58.7705H110.885V63.5954H115.71V58.7705Z" fill="#4B4B4B"/>
<path d="M125.35 58.7705H120.525V63.5954H125.35V58.7705Z" fill="#4B4B4B"/>
<path d="M134.995 58.7705H130.17V63.5954H134.995V58.7705Z" fill="#4B4B4B"/>
<path d="M154.303 58.7705H149.479V63.5954H154.303V58.7705Z" fill="#4B4B4B"/>
<path d="M159.128 58.7705H154.303V63.5954H159.128V58.7705Z" fill="#4B4B4B"/>
<path d="M5.69796 63.5962H0.873047V68.4211H5.69796V63.5962Z" fill="#4B4B4B"/>
<path d="M10.5124 63.5962H5.6875V68.4211H10.5124V63.5962Z" fill="#4B4B4B"/>
<path d="M15.3542 63.5962H10.5293V68.4211H15.3542V63.5962Z" fill="#4B4B4B"/>
<path d="M24.995 63.5962H20.1699V68.4211H24.995V63.5962Z" fill="#4B4B4B"/>
<path d="M29.8231 63.5962H24.998V68.4211H29.8231V63.5962Z" fill="#4B4B4B"/>
<path d="M39.4753 63.5962H34.6504V68.4211H39.4753V63.5962Z" fill="#4B4B4B"/>
<path d="M49.1217 63.5962H44.2969V68.4211H49.1217V63.5962Z" fill="#4B4B4B"/>
<path d="M53.9362 63.5962H49.1113V68.4211H53.9362V63.5962Z" fill="#4B4B4B"/>
<path d="M63.6003 63.5962H58.7754V68.4211H63.6003V63.5962Z" fill="#4B4B4B"/>
<path d="M68.4186 63.5947H63.5938V68.4198H68.4186V63.5947Z" fill="#4B4B4B"/>
<path d="M86.7547 63.5947H81.9297V68.4198H86.7547V63.5947Z" fill="#4B4B4B"/>
<path d="M101.223 63.5962H96.3984V68.4211H101.223V63.5962Z" fill="#4B4B4B"/>
<path d="M110.889 63.5962H106.064V68.4211H110.889V63.5962Z" fill="#4B4B4B"/>
<path d="M115.71 63.5962H110.885V68.4211H115.71V63.5962Z" fill="#4B4B4B"/>
<path d="M130.178 63.5962H125.354V68.4211H130.178V63.5962Z" fill="#4B4B4B"/>
<path d="M134.995 63.5962H130.17V68.4211H134.995V63.5962Z" fill="#4B4B4B"/>
<path d="M149.475 63.5947H144.65V68.4198H149.475V63.5947Z" fill="#4B4B4B"/>
<path d="M159.128 63.5962H154.303V68.4211H159.128V63.5962Z" fill="#4B4B4B"/>
<path d="M5.69796 68.4204H0.873047V73.2455H5.69796V68.4204Z" fill="#4B4B4B"/>
<path d="M15.3542 68.4204H10.5293V73.2455H15.3542V68.4204Z" fill="#4B4B4B"/>
<path d="M24.995 68.4204H20.1699V73.2455H24.995V68.4204Z" fill="#4B4B4B"/>
<path d="M29.8231 68.4204H24.998V73.2455H29.8231V68.4204Z" fill="#4B4B4B"/>
<path d="M34.6512 68.4204H29.8262V73.2455H34.6512V68.4204Z" fill="#4B4B4B"/>
<path d="M39.4753 68.4204H34.6504V73.2455H39.4753V68.4204Z" fill="#4B4B4B"/>
<path d="M53.9362 68.4204H49.1113V73.2455H53.9362V68.4204Z" fill="#4B4B4B"/>
<path d="M68.4186 68.4204H63.5938V73.2455H68.4186V68.4204Z" fill="#4B4B4B"/>
<path d="M77.11 68.4204H72.2852V73.2455H77.11V68.4204Z" fill="#4B4B4B"/>
<path d="M81.9264 68.4204H77.1016V73.2455H81.9264V68.4204Z" fill="#4B4B4B"/>
<path d="M91.5827 68.4204H86.7578V73.2455H91.5827V68.4204Z" fill="#4B4B4B"/>
<path d="M101.223 68.4204H96.3984V73.2455H101.223V68.4204Z" fill="#4B4B4B"/>
<path d="M110.889 68.4204H106.064V73.2455H110.889V68.4204Z" fill="#4B4B4B"/>
<path d="M120.522 68.4204H115.697V73.2455H120.522V68.4204Z" fill="#4B4B4B"/>
<path d="M125.35 68.4204H120.525V73.2455H125.35V68.4204Z" fill="#4B4B4B"/>
<path d="M130.178 68.4204H125.354V73.2455H130.178V68.4204Z" fill="#4B4B4B"/>
<path d="M134.995 68.4204H130.17V73.2455H134.995V68.4204Z" fill="#4B4B4B"/>
<path d="M144.649 68.4204H139.824V73.2455H144.649V68.4204Z" fill="#4B4B4B"/>
<path d="M149.475 68.4204H144.65V73.2455H149.475V68.4204Z" fill="#4B4B4B"/>
<path d="M154.303 68.4204H149.479V73.2455H154.303V68.4204Z" fill="#4B4B4B"/>
<path d="M5.69796 72.2808H0.873047V77.1058H5.69796V72.2808Z" fill="#4B4B4B"/>
<path d="M10.5124 72.2808H5.6875V77.1058H10.5124V72.2808Z" fill="#4B4B4B"/>
<path d="M24.995 72.2808H20.1699V77.1058H24.995V72.2808Z" fill="#4B4B4B"/>
<path d="M49.1217 72.2808H44.2969V77.1058H49.1217V72.2808Z" fill="#4B4B4B"/>
<path d="M53.9362 72.2808H49.1113V77.1058H53.9362V72.2808Z" fill="#4B4B4B"/>
<path d="M68.4186 72.2827H63.5938V77.1078H68.4186V72.2827Z" fill="#4B4B4B"/>
<path d="M77.11 72.2827H72.2852V77.1078H77.11V72.2827Z" fill="#4B4B4B"/>
<path d="M86.7547 72.2808H81.9297V77.1058H86.7547V72.2808Z" fill="#4B4B4B"/>
<path d="M96.3993 72.2808H91.5742V77.1058H96.3993V72.2808Z" fill="#4B4B4B"/>
<path d="M101.223 72.2808H96.3984V77.1058H101.223V72.2808Z" fill="#4B4B4B"/>
<path d="M106.051 72.2808H101.227V77.1058H106.051V72.2808Z" fill="#4B4B4B"/>
<path d="M110.889 72.2808H106.064V77.1058H110.889V72.2808Z" fill="#4B4B4B"/>
<path d="M115.71 72.2808H110.885V77.1058H115.71V72.2808Z" fill="#4B4B4B"/>
<path d="M130.178 72.2808H125.354V77.1058H130.178V72.2808Z" fill="#4B4B4B"/>
<path d="M134.995 72.2808H130.17V77.1058H134.995V72.2808Z" fill="#4B4B4B"/>
<path d="M144.649 72.2808H139.824V77.1058H144.649V72.2808Z" fill="#4B4B4B"/>
<path d="M149.475 72.2808H144.65V77.1058H149.475V72.2808Z" fill="#4B4B4B"/>
<path d="M154.304 72.2808H149.479V77.1058H154.304V72.2808Z" fill="#4B4B4B"/>
<path d="M15.3542 77.105H10.5293V81.93H15.3542V77.105Z" fill="#4B4B4B"/>
<path d="M20.157 77.105H15.332V81.93H20.157V77.105Z" fill="#4B4B4B"/>
<path d="M24.995 77.105H20.1699V81.93H24.995V77.105Z" fill="#4B4B4B"/>
<path d="M29.8229 77.105H24.998V81.93H29.8229V77.105Z" fill="#4B4B4B"/>
<path d="M34.651 77.105H29.8262V81.93H34.651V77.105Z" fill="#4B4B4B"/>
<path d="M39.4733 77.105H34.6484V81.93H39.4733V77.105Z" fill="#4B4B4B"/>
<path d="M44.2897 77.105H39.4648V81.93H44.2897V77.105Z" fill="#4B4B4B"/>
<path d="M49.1217 77.105H44.2969V81.93H49.1217V77.105Z" fill="#4B4B4B"/>
<path d="M53.9362 77.105H49.1113V81.93H53.9362V77.105Z" fill="#4B4B4B"/>
<path d="M68.4186 77.105H63.5938V81.93H68.4186V77.105Z" fill="#4B4B4B"/>
<path d="M73.243 77.105H68.418V81.93H73.243V77.105Z" fill="#4B4B4B"/>
<path d="M81.9264 77.105H77.1016V81.93H81.9264V77.105Z" fill="#4B4B4B"/>
<path d="M86.7547 77.105H81.9297V81.93H86.7547V77.105Z" fill="#4B4B4B"/>
<path d="M91.5827 77.105H86.7578V81.93H91.5827V77.105Z" fill="#4B4B4B"/>
<path d="M96.3993 77.105H91.5742V81.93H96.3993V77.105Z" fill="#4B4B4B"/>
<path d="M101.223 77.1069H96.3984V81.932H101.223V77.1069Z" fill="#4B4B4B"/>
<path d="M115.71 77.105H110.885V81.93H115.71V77.105Z" fill="#4B4B4B"/>
<path d="M125.35 77.105H120.525V81.93H125.35V77.105Z" fill="#4B4B4B"/>
<path d="M134.995 77.105H130.17V81.93H134.995V77.105Z" fill="#4B4B4B"/>
<path d="M139.821 77.105H134.996V81.93H139.821V77.105Z" fill="#4B4B4B"/>
<path d="M144.649 77.105H139.824V81.93H144.649V77.105Z" fill="#4B4B4B"/>
<path d="M154.304 77.105H149.479V81.93H154.304V77.105Z" fill="#4B4B4B"/>
<path d="M159.128 77.105H154.303V81.93H159.128V77.105Z" fill="#4B4B4B"/>
<path d="M20.157 81.9292H15.332V86.7541H20.157V81.9292Z" fill="#4B4B4B"/>
<path d="M49.1217 81.9292H44.2969V86.7541H49.1217V81.9292Z" fill="#4B4B4B"/>
<path d="M53.9362 81.9292H49.1113V86.7541H53.9362V81.9292Z" fill="#4B4B4B"/>
<path d="M63.6003 81.9292H58.7754V86.7541H63.6003V81.9292Z" fill="#4B4B4B"/>
<path d="M73.243 81.9292H68.418V86.7541H73.243V81.9292Z" fill="#4B4B4B"/>
<path d="M77.11 81.9292H72.2852V86.7541H77.11V81.9292Z" fill="#4B4B4B"/>
<path d="M81.9264 81.9292H77.1016V86.7541H81.9264V81.9292Z" fill="#4B4B4B"/>
<path d="M91.5827 81.9292H86.7578V86.7541H91.5827V81.9292Z" fill="#4B4B4B"/>
<path d="M101.223 81.9292H96.3984V86.7541H101.223V81.9292Z" fill="#4B4B4B"/>
<path d="M106.051 81.9292H101.227V86.7541H106.051V81.9292Z" fill="#4B4B4B"/>
<path d="M115.71 81.9292H110.885V86.7541H115.71V81.9292Z" fill="#4B4B4B"/>
<path d="M120.522 81.9292H115.697V86.7541H120.522V81.9292Z" fill="#4B4B4B"/>
<path d="M130.178 81.9292H125.354V86.7541H130.178V81.9292Z" fill="#4B4B4B"/>
<path d="M159.128 81.9292H154.303V86.7541H159.128V81.9292Z" fill="#4B4B4B"/>
<path d="M5.69796 86.7554H0.873047V91.5802H5.69796V86.7554Z" fill="#4B4B4B"/>
<path d="M24.995 86.7554H20.1699V91.5802H24.995V86.7554Z" fill="#4B4B4B"/>
<path d="M34.651 86.7554H29.8262V91.5802H34.651V86.7554Z" fill="#4B4B4B"/>
<path d="M39.4733 86.7554H34.6484V91.5802H39.4733V86.7554Z" fill="#4B4B4B"/>
<path d="M49.1217 86.7554H44.2969V91.5802H49.1217V86.7554Z" fill="#4B4B4B"/>
<path d="M68.4186 86.7554H63.5938V91.5802H68.4186V86.7554Z" fill="#4B4B4B"/>
<path d="M73.243 86.7554H68.418V91.5802H73.243V86.7554Z" fill="#4B4B4B"/>
<path d="M77.11 86.7554H72.2852V91.5802H77.11V86.7554Z" fill="#4B4B4B"/>
<path d="M81.9264 86.7554H77.1016V91.5802H81.9264V86.7554Z" fill="#4B4B4B"/>
<path d="M86.7547 86.7554H81.9297V91.5802H86.7547V86.7554Z" fill="#4B4B4B"/>
<path d="M96.3993 86.7554H91.5742V91.5802H96.3993V86.7554Z" fill="#4B4B4B"/>
<path d="M106.051 86.7554H101.227V91.5802H106.051V86.7554Z" fill="#4B4B4B"/>
<path d="M110.889 86.7554H106.064V91.5802H110.889V86.7554Z" fill="#4B4B4B"/>
<path d="M125.35 86.7554H120.525V91.5802H125.35V86.7554Z" fill="#4B4B4B"/>
<path d="M130.178 86.7554H125.354V91.5802H130.178V86.7554Z" fill="#4B4B4B"/>
<path d="M139.821 86.7554H134.996V91.5802H139.821V86.7554Z" fill="#4B4B4B"/>
<path d="M149.475 86.7554H144.65V91.5802H149.475V86.7554Z" fill="#4B4B4B"/>
<path d="M154.304 86.7554H149.479V91.5802H154.304V86.7554Z" fill="#4B4B4B"/>
<path d="M5.69796 91.5796H0.873047V96.4046H5.69796V91.5796Z" fill="#4B4B4B"/>
<path d="M10.5124 91.5811H5.6875V96.4059H10.5124V91.5811Z" fill="#4B4B4B"/>
<path d="M15.3542 91.5811H10.5293V96.4059H15.3542V91.5811Z" fill="#4B4B4B"/>
<path d="M20.157 91.5796H15.332V96.4046H20.157V91.5796Z" fill="#4B4B4B"/>
<path d="M24.995 91.5811H20.1699V96.4059H24.995V91.5811Z" fill="#4B4B4B"/>
<path d="M39.4753 91.5811H34.6504V96.4059H39.4753V91.5811Z" fill="#4B4B4B"/>
<path d="M53.9362 91.5811H49.1113V96.4059H53.9362V91.5811Z" fill="#4B4B4B"/>
<path d="M58.7643 91.5811H53.9395V96.4059H58.7643V91.5811Z" fill="#4B4B4B"/>
<path d="M63.6003 91.5811H58.7754V96.4059H63.6003V91.5811Z" fill="#4B4B4B"/>
<path d="M68.4186 91.5811H63.5938V96.4059H68.4186V91.5811Z" fill="#4B4B4B"/>
<path d="M86.7547 91.5811H81.9297V96.4059H86.7547V91.5811Z" fill="#4B4B4B"/>
<path d="M91.5827 91.5811H86.7578V96.4059H91.5827V91.5811Z" fill="#4B4B4B"/>
<path d="M101.223 91.5811H96.3984V96.4059H101.223V91.5811Z" fill="#4B4B4B"/>
<path d="M106.051 91.5811H101.227V96.4059H106.051V91.5811Z" fill="#4B4B4B"/>
<path d="M110.889 91.5811H106.064V96.4059H110.889V91.5811Z" fill="#4B4B4B"/>
<path d="M115.71 91.5811H110.885V96.4059H115.71V91.5811Z" fill="#4B4B4B"/>
<path d="M120.522 91.5811H115.697V96.4059H120.522V91.5811Z" fill="#4B4B4B"/>
<path d="M130.178 91.5811H125.354V96.4059H130.178V91.5811Z" fill="#4B4B4B"/>
<path d="M144.649 91.5811H139.824V96.4059H144.649V91.5811Z" fill="#4B4B4B"/>
<path d="M149.475 91.5796H144.65V96.4046H149.475V91.5796Z" fill="#4B4B4B"/>
<path d="M154.303 91.5796H149.479V96.4046H154.303V91.5796Z" fill="#4B4B4B"/>
<path d="M15.3542 96.4053H10.5293V101.23H15.3542V96.4053Z" fill="#4B4B4B"/>
<path d="M20.157 96.4053H15.332V101.23H20.157V96.4053Z" fill="#4B4B4B"/>
<path d="M29.8229 96.4053H24.998V101.23H29.8229V96.4053Z" fill="#4B4B4B"/>
<path d="M34.651 96.4053H29.8262V101.23H34.651V96.4053Z" fill="#4B4B4B"/>
<path d="M39.4733 96.4053H34.6484V101.23H39.4733V96.4053Z" fill="#4B4B4B"/>
<path d="M44.2897 96.4053H39.4648V101.23H44.2897V96.4053Z" fill="#4B4B4B"/>
<path d="M53.9362 96.4053H49.1113V101.23H53.9362V96.4053Z" fill="#4B4B4B"/>
<path d="M68.4186 96.4053H63.5938V101.23H68.4186V96.4053Z" fill="#4B4B4B"/>
<path d="M73.243 96.4053H68.418V101.23H73.243V96.4053Z" fill="#4B4B4B"/>
<path d="M77.11 96.4053H72.2852V101.23H77.11V96.4053Z" fill="#4B4B4B"/>
<path d="M91.5827 96.4053H86.7578V101.23H91.5827V96.4053Z" fill="#4B4B4B"/>
<path d="M101.223 96.4053H96.3984V101.23H101.223V96.4053Z" fill="#4B4B4B"/>
<path d="M125.35 96.4053H120.525V101.23H125.35V96.4053Z" fill="#4B4B4B"/>
<path d="M130.178 96.4053H125.354V101.23H130.178V96.4053Z" fill="#4B4B4B"/>
<path d="M139.821 96.4053H134.996V101.23H139.821V96.4053Z" fill="#4B4B4B"/>
<path d="M144.649 96.4053H139.824V101.23H144.649V96.4053Z" fill="#4B4B4B"/>
<path d="M154.304 96.4053H149.479V101.23H154.304V96.4053Z" fill="#4B4B4B"/>
<path d="M159.128 96.4053H154.303V101.23H159.128V96.4053Z" fill="#4B4B4B"/>
<path d="M5.69796 101.231H0.873047V106.056H5.69796V101.231Z" fill="#4B4B4B"/>
<path d="M10.5124 101.231H5.6875V106.056H10.5124V101.231Z" fill="#4B4B4B"/>
<path d="M15.3542 101.231H10.5293V106.056H15.3542V101.231Z" fill="#4B4B4B"/>
<path d="M44.2897 101.231H39.4648V106.056H44.2897V101.231Z" fill="#4B4B4B"/>
<path d="M53.9362 101.231H49.1113V106.056H53.9362V101.231Z" fill="#4B4B4B"/>
<path d="M58.7643 101.231H53.9395V106.056H58.7643V101.231Z" fill="#4B4B4B"/>
<path d="M68.4186 101.231H63.5938V106.056H68.4186V101.231Z" fill="#4B4B4B"/>
<path d="M73.243 101.231H68.418V106.056H73.243V101.231Z" fill="#4B4B4B"/>
<path d="M77.11 101.231H72.2852V106.056H77.11V101.231Z" fill="#4B4B4B"/>
<path d="M86.7547 101.231H81.9297V106.056H86.7547V101.231Z" fill="#4B4B4B"/>
<path d="M91.5827 101.231H86.7578V106.056H91.5827V101.231Z" fill="#4B4B4B"/>
<path d="M96.3993 101.231H91.5742V106.056H96.3993V101.231Z" fill="#4B4B4B"/>
<path d="M106.051 101.231H101.227V106.056H106.051V101.231Z" fill="#4B4B4B"/>
<path d="M120.522 101.231H115.697V106.056H120.522V101.231Z" fill="#4B4B4B"/>
<path d="M144.649 101.231H139.824V106.056H144.649V101.231Z" fill="#4B4B4B"/>
<path d="M159.128 101.229H154.303V106.055H159.128V101.229Z" fill="#4B4B4B"/>
<path d="M5.69796 106.054H0.873047V110.879H5.69796V106.054Z" fill="#4B4B4B"/>
<path d="M15.3542 106.054H10.5293V110.879H15.3542V106.054Z" fill="#4B4B4B"/>
<path d="M20.157 106.054H15.332V110.879H20.157V106.054Z" fill="#4B4B4B"/>
<path d="M24.995 106.054H20.1699V110.879H24.995V106.054Z" fill="#4B4B4B"/>
<path d="M34.6512 106.054H29.8262V110.879H34.6512V106.054Z" fill="#4B4B4B"/>
<path d="M39.4753 106.054H34.6504V110.879H39.4753V106.054Z" fill="#4B4B4B"/>
<path d="M44.2917 106.054H39.4668V110.879H44.2917V106.054Z" fill="#4B4B4B"/>
<path d="M53.9362 106.054H49.1113V110.879H53.9362V106.054Z" fill="#4B4B4B"/>
<path d="M58.7643 106.054H53.9395V110.879H58.7643V106.054Z" fill="#4B4B4B"/>
<path d="M63.6003 106.054H58.7754V110.879H63.6003V106.054Z" fill="#4B4B4B"/>
<path d="M77.11 106.054H72.2852V110.879H77.11V106.054Z" fill="#4B4B4B"/>
<path d="M101.223 106.054H96.3984V110.879H101.223V106.054Z" fill="#4B4B4B"/>
<path d="M106.051 106.054H101.227V110.879H106.051V106.054Z" fill="#4B4B4B"/>
<path d="M110.889 106.054H106.064V110.879H110.889V106.054Z" fill="#4B4B4B"/>
<path d="M139.821 106.054H134.996V110.879H139.821V106.054Z" fill="#4B4B4B"/>
<path d="M149.475 106.054H144.65V110.879H149.475V106.054Z" fill="#4B4B4B"/>
<path d="M154.303 106.054H149.479V110.879H154.303V106.054Z" fill="#4B4B4B"/>
<path d="M5.69796 110.88H0.873047V115.705H5.69796V110.88Z" fill="#4B4B4B"/>
<path d="M15.3542 110.879H10.5293V115.704H15.3542V110.879Z" fill="#4B4B4B"/>
<path d="M24.995 110.879H20.1699V115.704H24.995V110.879Z" fill="#4B4B4B"/>
<path d="M29.8229 110.879H24.998V115.704H29.8229V110.879Z" fill="#4B4B4B"/>
<path d="M39.4733 110.879H34.6484V115.704H39.4733V110.879Z" fill="#4B4B4B"/>
<path d="M49.1217 110.879H44.2969V115.704H49.1217V110.879Z" fill="#4B4B4B"/>
<path d="M58.7643 110.879H53.9395V115.704H58.7643V110.879Z" fill="#4B4B4B"/>
<path d="M63.6003 110.879H58.7754V115.704H63.6003V110.879Z" fill="#4B4B4B"/>
<path d="M68.4186 110.879H63.5938V115.704H68.4186V110.879Z" fill="#4B4B4B"/>
<path d="M96.3993 110.879H91.5742V115.704H96.3993V110.879Z" fill="#4B4B4B"/>
<path d="M101.223 110.879H96.3984V115.704H101.223V110.879Z" fill="#4B4B4B"/>
<path d="M106.051 110.879H101.227V115.704H106.051V110.879Z" fill="#4B4B4B"/>
<path d="M120.522 110.879H115.697V115.704H120.522V110.879Z" fill="#4B4B4B"/>
<path d="M139.821 110.879H134.996V115.704H139.821V110.879Z" fill="#4B4B4B"/>
<path d="M144.649 110.879H139.824V115.704H144.649V110.879Z" fill="#4B4B4B"/>
<path d="M149.475 110.88H144.65V115.705H149.475V110.88Z" fill="#4B4B4B"/>
<path d="M154.304 110.879H149.479V115.704H154.304V110.879Z" fill="#4B4B4B"/>
<path d="M159.128 110.879H154.303V115.704H159.128V110.879Z" fill="#4B4B4B"/>
<path d="M5.69796 115.705H0.873047V120.53H5.69796V115.705Z" fill="#4B4B4B"/>
<path d="M20.157 115.705H15.332V120.53H20.157V115.705Z" fill="#4B4B4B"/>
<path d="M29.8229 115.705H24.998V120.53H29.8229V115.705Z" fill="#4B4B4B"/>
<path d="M34.651 115.705H29.8262V120.53H34.651V115.705Z" fill="#4B4B4B"/>
<path d="M39.4753 115.705H34.6504V120.53H39.4753V115.705Z" fill="#4B4B4B"/>
<path d="M44.2897 115.705H39.4648V120.53H44.2897V115.705Z" fill="#4B4B4B"/>
<path d="M49.1217 115.705H44.2969V120.53H49.1217V115.705Z" fill="#4B4B4B"/>
<path d="M53.9362 115.705H49.1113V120.53H53.9362V115.705Z" fill="#4B4B4B"/>
<path d="M58.7643 115.705H53.9395V120.53H58.7643V115.705Z" fill="#4B4B4B"/>
<path d="M63.6003 115.705H58.7754V120.53H63.6003V115.705Z" fill="#4B4B4B"/>
<path d="M68.4186 115.705H63.5938V120.53H68.4186V115.705Z" fill="#4B4B4B"/>
<path d="M96.3993 115.705H91.5742V120.53H96.3993V115.705Z" fill="#4B4B4B"/>
<path d="M120.522 115.705H115.697V120.53H120.522V115.705Z" fill="#4B4B4B"/>
<path d="M125.35 115.705H120.525V120.53H125.35V115.705Z" fill="#4B4B4B"/>
<path d="M130.178 115.705H125.354V120.53H130.178V115.705Z" fill="#4B4B4B"/>
<path d="M134.995 115.705H130.17V120.53H134.995V115.705Z" fill="#4B4B4B"/>
<path d="M139.821 115.705H134.996V120.53H139.821V115.705Z" fill="#4B4B4B"/>
<path d="M154.304 115.705H149.479V120.53H154.304V115.705Z" fill="#4B4B4B"/>
<path d="M159.128 115.705H154.303V120.53H159.128V115.705Z" fill="#4B4B4B"/>
<path d="M44.2897 120.531H39.4648V125.356H44.2897V120.531Z" fill="#4B4B4B"/>
<path d="M49.1217 120.531H44.2969V125.356H49.1217V120.531Z" fill="#4B4B4B"/>
<path d="M53.9362 120.531H49.1113V125.356H53.9362V120.531Z" fill="#4B4B4B"/>
<path d="M63.6003 120.531H58.7754V125.356H63.6003V120.531Z" fill="#4B4B4B"/>
<path d="M73.243 120.531H68.418V125.356H73.243V120.531Z" fill="#4B4B4B"/>
<path d="M77.1102 120.531H72.2852V125.356H77.1102V120.531Z" fill="#4B4B4B"/>
<path d="M86.7546 120.531H81.9297V125.356H86.7546V120.531Z" fill="#4B4B4B"/>
<path d="M91.5827 120.531H86.7578V125.356H91.5827V120.531Z" fill="#4B4B4B"/>
<path d="M101.221 120.531H96.3965V125.356H101.221V120.531Z" fill="#4B4B4B"/>
<path d="M120.522 120.531H115.697V125.356H120.522V120.531Z" fill="#4B4B4B"/>
<path d="M139.821 120.531H134.996V125.356H139.821V120.531Z" fill="#4B4B4B"/>
<path d="M144.649 120.531H139.824V125.356H144.649V120.531Z" fill="#4B4B4B"/>
<path d="M159.128 120.531H154.303V125.356H159.128V120.531Z" fill="#4B4B4B"/>
<path d="M53.9362 125.356H49.1113V130.181H53.9362V125.356Z" fill="#4B4B4B"/>
<path d="M58.7643 125.356H53.9395V130.181H58.7643V125.356Z" fill="#4B4B4B"/>
<path d="M77.1102 125.356H72.2852V130.181H77.1102V125.356Z" fill="#4B4B4B"/>
<path d="M91.5827 125.356H86.7578V130.181H91.5827V125.356Z" fill="#4B4B4B"/>
<path d="M96.3993 125.356H91.5742V130.181H96.3993V125.356Z" fill="#4B4B4B"/>
<path d="M110.889 125.356H106.064V130.181H110.889V125.356Z" fill="#4B4B4B"/>
<path d="M115.71 125.356H110.885V130.181H115.71V125.356Z" fill="#4B4B4B"/>
<path d="M120.522 125.356H115.697V130.181H120.522V125.356Z" fill="#4B4B4B"/>
<path d="M130.178 125.356H125.354V130.181H130.178V125.356Z" fill="#4B4B4B"/>
<path d="M139.821 125.356H134.996V130.181H139.821V125.356Z" fill="#4B4B4B"/>
<path d="M144.649 125.356H139.824V130.181H144.649V125.356Z" fill="#4B4B4B"/>
<path d="M154.304 125.356H149.479V130.181H154.304V125.356Z" fill="#4B4B4B"/>
<path d="M53.9362 130.182H49.1113V135.007H53.9362V130.182Z" fill="#4B4B4B"/>
<path d="M58.7643 130.182H53.9395V135.007H58.7643V130.182Z" fill="#4B4B4B"/>
<path d="M63.6003 130.182H58.7754V135.007H63.6003V130.182Z" fill="#4B4B4B"/>
<path d="M68.4186 130.182H63.5938V135.007H68.4186V130.182Z" fill="#4B4B4B"/>
<path d="M73.243 130.182H68.418V135.007H73.243V130.182Z" fill="#4B4B4B"/>
<path d="M77.11 130.182H72.2852V135.007H77.11V130.182Z" fill="#4B4B4B"/>
<path d="M81.9264 130.182H77.1016V135.007H81.9264V130.182Z" fill="#4B4B4B"/>
<path d="M96.3993 130.182H91.5742V135.007H96.3993V130.182Z" fill="#4B4B4B"/>
<path d="M115.71 130.182H110.885V135.007H115.71V130.182Z" fill="#4B4B4B"/>
<path d="M120.522 130.182H115.697V135.007H120.522V130.182Z" fill="#4B4B4B"/>
<path d="M139.821 130.182H134.996V135.007H139.821V130.182Z" fill="#4B4B4B"/>
<path d="M144.649 130.182H139.824V135.007H144.649V130.182Z" fill="#4B4B4B"/>
<path d="M149.475 130.179H144.65V135.004H149.475V130.179Z" fill="#4B4B4B"/>
<path d="M154.303 130.182H149.479V135.007H154.303V130.182Z" fill="#4B4B4B"/>
<path d="M159.128 130.182H154.303V135.007H159.128V130.182Z" fill="#4B4B4B"/>
<path d="M44.2897 135.006H39.4648V139.831H44.2897V135.006Z" fill="#4B4B4B"/>
<path d="M49.1217 135.006H44.2969V139.831H49.1217V135.006Z" fill="#4B4B4B"/>
<path d="M77.11 135.006H72.2852V139.831H77.11V135.006Z" fill="#4B4B4B"/>
<path d="M86.7547 135.006H81.9297V139.831H86.7547V135.006Z" fill="#4B4B4B"/>
<path d="M91.5827 135.006H86.7578V139.831H91.5827V135.006Z" fill="#4B4B4B"/>
<path d="M96.3993 135.006H91.5742V139.831H96.3993V135.006Z" fill="#4B4B4B"/>
<path d="M106.051 135.006H101.227V139.831H106.051V135.006Z" fill="#4B4B4B"/>
<path d="M110.889 135.006H106.064V139.831H110.889V135.006Z" fill="#4B4B4B"/>
<path d="M120.522 135.006H115.697V139.831H120.522V135.006Z" fill="#4B4B4B"/>
<path d="M125.35 135.006H120.525V139.831H125.35V135.006Z" fill="#4B4B4B"/>
<path d="M130.178 135.006H125.354V139.831H130.178V135.006Z" fill="#4B4B4B"/>
<path d="M134.995 135.006H130.17V139.831H134.995V135.006Z" fill="#4B4B4B"/>
<path d="M139.821 135.006H134.996V139.831H139.821V135.006Z" fill="#4B4B4B"/>
<path d="M144.649 135.006H139.824V139.831H144.649V135.006Z" fill="#4B4B4B"/>
<path d="M154.303 135.006H149.479V139.831H154.303V135.006Z" fill="#4B4B4B"/>
<path d="M159.128 135.006H154.303V139.831H159.128V135.006Z" fill="#4B4B4B"/>
<path d="M44.2897 139.83H39.4648V144.655H44.2897V139.83Z" fill="#4B4B4B"/>
<path d="M58.7643 139.83H53.9395V144.655H58.7643V139.83Z" fill="#4B4B4B"/>
<path d="M68.4186 139.83H63.5938V144.655H68.4186V139.83Z" fill="#4B4B4B"/>
<path d="M73.243 139.83H68.418V144.655H73.243V139.83Z" fill="#4B4B4B"/>
<path d="M86.7547 139.83H81.9297V144.655H86.7547V139.83Z" fill="#4B4B4B"/>
<path d="M96.3993 139.83H91.5742V144.655H96.3993V139.83Z" fill="#4B4B4B"/>
<path d="M120.522 139.83H115.697V144.655H120.522V139.83Z" fill="#4B4B4B"/>
<path d="M125.35 139.83H120.525V144.655H125.35V139.83Z" fill="#4B4B4B"/>
<path d="M139.821 139.83H134.996V144.655H139.821V139.83Z" fill="#4B4B4B"/>
<path d="M149.475 139.83H144.65V144.655H149.475V139.83Z" fill="#4B4B4B"/>
<path d="M154.303 139.83H149.479V144.655H154.303V139.83Z" fill="#4B4B4B"/>
<path d="M44.2897 144.656H39.4648V149.481H44.2897V144.656Z" fill="#4B4B4B"/>
<path d="M49.1217 144.656H44.2969V149.481H49.1217V144.656Z" fill="#4B4B4B"/>
<path d="M53.9362 144.656H49.1113V149.481H53.9362V144.656Z" fill="#4B4B4B"/>
<path d="M68.4186 144.656H63.5938V149.481H68.4186V144.656Z" fill="#4B4B4B"/>
<path d="M77.11 144.656H72.2852V149.481H77.11V144.656Z" fill="#4B4B4B"/>
<path d="M81.9264 144.656H77.1016V149.481H81.9264V144.656Z" fill="#4B4B4B"/>
<path d="M91.5827 144.656H86.7578V149.481H91.5827V144.656Z" fill="#4B4B4B"/>
<path d="M115.71 144.656H110.885V149.481H115.71V144.656Z" fill="#4B4B4B"/>
<path d="M125.35 144.656H120.525V149.481H125.35V144.656Z" fill="#4B4B4B"/>
<path d="M130.178 144.656H125.354V149.481H130.178V144.656Z" fill="#4B4B4B"/>
<path d="M149.475 144.656H144.65V149.481H149.475V144.656Z" fill="#4B4B4B"/>
<path d="M49.1217 149.479H44.2969V154.304H49.1217V149.479Z" fill="#4B4B4B"/>
<path d="M81.9264 149.479H77.1016V154.304H81.9264V149.479Z" fill="#4B4B4B"/>
<path d="M125.35 149.479H120.525V154.304H125.35V149.479Z" fill="#4B4B4B"/>
<path d="M130.178 149.479H125.354V154.304H130.178V149.479Z" fill="#4B4B4B"/>
<path d="M134.995 149.48H130.17V154.305H134.995V149.48Z" fill="#4B4B4B"/>
<path d="M144.649 149.479H139.824V154.304H144.649V149.479Z" fill="#4B4B4B"/>
<path d="M149.475 149.479H144.65V154.304H149.475V149.479Z" fill="#4B4B4B"/>
<path d="M49.1217 154.305H44.2969V159.13H49.1217V154.305Z" fill="#4B4B4B"/>
<path d="M63.6003 154.305H58.7754V159.13H63.6003V154.305Z" fill="#4B4B4B"/>
<path d="M81.9264 154.305H77.1016V159.13H81.9264V154.305Z" fill="#4B4B4B"/>
<path d="M91.5827 154.305H86.7578V159.13H91.5827V154.305Z" fill="#4B4B4B"/>
<path d="M96.3993 154.305H91.5742V159.13H96.3993V154.305Z" fill="#4B4B4B"/>
<path d="M101.223 154.305H96.3984V159.13H101.223V154.305Z" fill="#4B4B4B"/>
<path d="M106.051 154.305H101.227V159.13H106.051V154.305Z" fill="#4B4B4B"/>
<path d="M110.889 154.305H106.064V159.13H110.889V154.305Z" fill="#4B4B4B"/>
<path d="M120.522 154.305H115.697V159.13H120.522V154.305Z" fill="#4B4B4B"/>
<path d="M125.35 154.305H120.525V159.13H125.35V154.305Z" fill="#4B4B4B"/>
<path d="M130.178 154.305H125.354V159.13H130.178V154.305Z" fill="#4B4B4B"/>
<path d="M144.649 154.305H139.824V159.13H144.649V154.305Z" fill="#4B4B4B"/>
<path d="M154.304 154.305H149.479V159.13H154.304V154.305Z" fill="#4B4B4B"/>
<path d="M11.7271 34.6444H24.0306C29.8205 34.6444 34.6454 29.8195 34.6454 24.0295V11.7258C34.6454 5.6946 29.8205 0.869629 23.7894 0.869629H11.4859C5.696 0.869629 0.871094 5.6946 0.871094 11.4846V23.7882C0.871094 29.8194 5.696 34.6444 11.7271 34.6444ZM29.8205 12.4496V23.0644C29.8205 26.6832 26.6843 29.8194 23.0657 29.8194H12.4509C8.59094 29.8194 5.696 26.9244 5.696 23.0644V12.4496C5.696 8.83083 8.83219 5.6946 12.4509 5.6946H23.0657C26.9255 5.6946 29.8205 8.58958 29.8205 12.4496Z" fill="#4B4B4B"/>
<path d="M136.208 34.6459H148.511C154.301 34.6459 159.126 29.8209 159.126 24.031V11.7273C159.126 5.69606 154.301 0.871094 148.27 0.871094H135.967C130.177 0.871094 125.352 5.69606 125.352 11.486V23.7897C125.352 29.8209 130.177 34.6459 136.208 34.6459ZM154.301 12.451V23.0659C154.301 26.6847 151.165 29.8209 147.546 29.8209H136.931C133.072 29.8209 130.177 26.9259 130.177 23.0659V12.451C130.177 8.8323 133.313 5.69606 136.931 5.69606H147.546C151.406 5.69606 154.301 8.59105 154.301 12.451Z" fill="#4B4B4B"/>
<path d="M11.7271 159.132H24.0306C29.8205 159.132 34.6454 154.307 34.6454 148.517V136.213C34.6454 130.182 29.8205 125.357 23.7894 125.357H11.4859C5.696 125.357 0.871094 130.182 0.871094 135.972V148.276C0.871094 154.307 5.696 159.132 11.7271 159.132ZM29.8205 136.937V147.552C29.8205 151.171 26.6844 154.307 23.0657 154.307H12.4509C8.59094 154.307 5.696 151.412 5.696 147.552V136.937C5.696 133.318 8.83219 130.182 12.4509 130.182H23.0657C26.9256 130.182 29.8205 133.077 29.8205 136.937Z" fill="#4B4B4B"/>
<path d="M25.0021 14.6207V21.1344C25.0021 23.0645 23.0722 24.9944 20.9009 24.9944H14.6285C12.2161 24.9944 10.5273 23.3057 10.5273 20.8932V14.6207C10.5273 12.4495 12.4573 10.5195 14.6285 10.5195H21.1421C23.3134 10.5195 25.0021 12.2083 25.0021 14.6207Z" fill="#4B4B4B"/>
<path d="M149.482 14.6207V21.1344C149.482 23.0645 147.553 24.9944 145.381 24.9944H139.109C136.697 24.9944 135.008 23.3057 135.008 20.8932V14.6207C135.008 12.4495 136.938 10.5195 139.109 10.5195H145.623C147.794 10.5195 149.482 12.2083 149.482 14.6207Z" fill="#4B4B4B"/>
<path d="M25.002 139.107V145.621C25.002 147.551 23.0721 149.481 20.9009 149.481H14.6285C12.2161 149.481 10.5273 147.792 10.5273 145.38V139.107C10.5273 136.936 12.4573 135.006 14.6285 135.006H21.1422C23.3133 135.006 25.002 136.695 25.002 139.107Z" fill="#4B4B4B"/>
</svg>
