<svg width="272" height="186" viewBox="0 0 272 186" fill="none" xmlns="http://www.w3.org/2000/svg">
<mask id="path-1-inside-1_107_2461" fill="white">
<path d="M262 0C267.523 0 272 4.47715 272 10V142.779C269.027 143.358 266.782 145.976 266.782 149.118C266.782 152.26 269.027 154.877 272 155.455V176C272 180.964 268.383 185.08 263.641 185.863C263.392 184.327 262.061 183.153 260.454 183.153C258.8 183.153 257.438 184.397 257.249 186H253.394C253.204 184.397 251.842 183.153 250.188 183.153C248.535 183.153 247.173 184.397 246.983 186H243.131C242.942 184.397 241.579 183.153 239.925 183.153C238.271 183.153 236.909 184.397 236.72 186H232.867C232.678 184.397 231.315 183.153 229.661 183.153C228.007 183.153 226.645 184.397 226.456 186H222.604C222.414 184.397 221.051 183.153 219.397 183.153C217.744 183.154 216.382 184.397 216.192 186H212.34C212.151 184.397 210.788 183.153 209.134 183.153C207.48 183.154 206.118 184.397 205.929 186H202.074C201.885 184.397 200.522 183.153 198.868 183.153C197.215 183.153 195.852 184.397 195.663 186H191.811C191.621 184.397 190.258 183.153 188.604 183.153C186.951 183.154 185.589 184.397 185.399 186H181.547C181.358 184.397 179.995 183.154 178.342 183.153C176.688 183.153 175.325 184.397 175.136 186H171.283C171.094 184.397 169.732 183.154 168.078 183.153C166.424 183.153 165.061 184.397 164.872 186H161.018C160.828 184.397 159.465 183.153 157.812 183.153C156.158 183.154 154.796 184.397 154.606 186H150.754C150.565 184.397 149.202 183.154 147.549 183.153C145.895 183.153 144.532 184.397 144.343 186H140.49C140.301 184.397 138.939 183.153 137.285 183.153C135.631 183.153 134.268 184.397 134.079 186H130.225C130.035 184.397 128.673 183.154 127.02 183.153C125.366 183.153 124.003 184.397 123.813 186H119.963C119.774 184.397 118.412 183.153 116.758 183.153C115.104 183.153 113.742 184.397 113.553 186H109.697C109.508 184.397 108.146 183.153 106.492 183.153C104.838 183.153 103.475 184.397 103.286 186H99.4336C99.2443 184.397 97.8822 183.153 96.2285 183.153C94.5747 183.153 93.2117 184.397 93.0225 186H89.168C88.9787 184.397 87.6165 183.153 85.9629 183.153C84.3091 183.153 82.9461 184.397 82.7568 186H78.9043C78.715 184.397 77.3529 183.153 75.6992 183.153C74.0454 183.153 72.6824 184.397 72.4932 186H68.6406C68.4513 184.397 67.0893 183.153 65.4355 183.153C63.7818 183.153 62.4198 184.397 62.2305 186H58.377C58.1876 184.397 56.8256 183.153 55.1719 183.153C53.5181 183.153 52.1561 184.397 51.9668 186H48.1133C47.9239 184.397 46.562 183.153 44.9082 183.153C43.2545 183.153 41.8924 184.397 41.7031 186H37.8457C37.6564 184.397 36.2943 183.153 34.6406 183.153C32.9868 183.153 31.6239 184.397 31.4346 186H27.582C27.3927 184.397 26.0307 183.153 24.377 183.153C22.7232 183.153 21.3602 184.397 21.1709 186H17.3184C17.129 184.397 15.767 183.153 14.1133 183.153C12.4595 183.153 11.0975 184.397 10.9082 186H10C4.47715 186 8.8588e-08 181.523 0 176V155.455C2.97408 154.877 5.21967 152.261 5.21973 149.118C5.21973 145.975 2.97427 143.357 0 142.779V10C8.3756e-07 4.47715 4.47715 2.2549e-07 10 0H262Z"/>
</mask>
<path d="M262 0C267.523 0 272 4.47715 272 10V142.779C269.027 143.358 266.782 145.976 266.782 149.118C266.782 152.26 269.027 154.877 272 155.455V176C272 180.964 268.383 185.08 263.641 185.863C263.392 184.327 262.061 183.153 260.454 183.153C258.8 183.153 257.438 184.397 257.249 186H253.394C253.204 184.397 251.842 183.153 250.188 183.153C248.535 183.153 247.173 184.397 246.983 186H243.131C242.942 184.397 241.579 183.153 239.925 183.153C238.271 183.153 236.909 184.397 236.72 186H232.867C232.678 184.397 231.315 183.153 229.661 183.153C228.007 183.153 226.645 184.397 226.456 186H222.604C222.414 184.397 221.051 183.153 219.397 183.153C217.744 183.154 216.382 184.397 216.192 186H212.34C212.151 184.397 210.788 183.153 209.134 183.153C207.48 183.154 206.118 184.397 205.929 186H202.074C201.885 184.397 200.522 183.153 198.868 183.153C197.215 183.153 195.852 184.397 195.663 186H191.811C191.621 184.397 190.258 183.153 188.604 183.153C186.951 183.154 185.589 184.397 185.399 186H181.547C181.358 184.397 179.995 183.154 178.342 183.153C176.688 183.153 175.325 184.397 175.136 186H171.283C171.094 184.397 169.732 183.154 168.078 183.153C166.424 183.153 165.061 184.397 164.872 186H161.018C160.828 184.397 159.465 183.153 157.812 183.153C156.158 183.154 154.796 184.397 154.606 186H150.754C150.565 184.397 149.202 183.154 147.549 183.153C145.895 183.153 144.532 184.397 144.343 186H140.49C140.301 184.397 138.939 183.153 137.285 183.153C135.631 183.153 134.268 184.397 134.079 186H130.225C130.035 184.397 128.673 183.154 127.02 183.153C125.366 183.153 124.003 184.397 123.813 186H119.963C119.774 184.397 118.412 183.153 116.758 183.153C115.104 183.153 113.742 184.397 113.553 186H109.697C109.508 184.397 108.146 183.153 106.492 183.153C104.838 183.153 103.475 184.397 103.286 186H99.4336C99.2443 184.397 97.8822 183.153 96.2285 183.153C94.5747 183.153 93.2117 184.397 93.0225 186H89.168C88.9787 184.397 87.6165 183.153 85.9629 183.153C84.3091 183.153 82.9461 184.397 82.7568 186H78.9043C78.715 184.397 77.3529 183.153 75.6992 183.153C74.0454 183.153 72.6824 184.397 72.4932 186H68.6406C68.4513 184.397 67.0893 183.153 65.4355 183.153C63.7818 183.153 62.4198 184.397 62.2305 186H58.377C58.1876 184.397 56.8256 183.153 55.1719 183.153C53.5181 183.153 52.1561 184.397 51.9668 186H48.1133C47.9239 184.397 46.562 183.153 44.9082 183.153C43.2545 183.153 41.8924 184.397 41.7031 186H37.8457C37.6564 184.397 36.2943 183.153 34.6406 183.153C32.9868 183.153 31.6239 184.397 31.4346 186H27.582C27.3927 184.397 26.0307 183.153 24.377 183.153C22.7232 183.153 21.3602 184.397 21.1709 186H17.3184C17.129 184.397 15.767 183.153 14.1133 183.153C12.4595 183.153 11.0975 184.397 10.9082 186H10C4.47715 186 8.8588e-08 181.523 0 176V155.455C2.97408 154.877 5.21967 152.261 5.21973 149.118C5.21973 145.975 2.97427 143.357 0 142.779V10C8.3756e-07 4.47715 4.47715 2.2549e-07 10 0H262Z" fill="white"/>
<path d="M272 10H272.7V10H272ZM272 142.779L272.134 143.466L272.7 143.356V142.779H272ZM266.782 149.118H266.082V149.118L266.782 149.118ZM272 155.455H272.7V154.878L272.134 154.768L272 155.455ZM272 176H272.7V176H272ZM263.641 185.863L262.95 185.975L263.062 186.668L263.755 186.554L263.641 185.863ZM260.454 183.153V182.453H260.454L260.454 183.153ZM257.249 186V186.7H257.871L257.944 186.082L257.249 186ZM253.394 186L252.698 186.082L252.771 186.7H253.394V186ZM250.188 183.153V182.453H250.188L250.188 183.153ZM246.983 186V186.7H247.606L247.679 186.082L246.983 186ZM243.131 186L242.436 186.082L242.509 186.7H243.131V186ZM239.925 183.153V182.453H239.925L239.925 183.153ZM236.72 186V186.7H237.342L237.415 186.082L236.72 186ZM232.867 186L232.172 186.082L232.245 186.7H232.867V186ZM229.661 183.153V182.453H229.661L229.661 183.153ZM226.456 186V186.7H227.078L227.151 186.082L226.456 186ZM222.604 186L221.908 186.082L221.981 186.7H222.604V186ZM219.397 183.153V182.453H219.397L219.397 183.153ZM216.192 186V186.7H216.815L216.888 186.082L216.192 186ZM212.34 186L211.645 186.082L211.718 186.7H212.34V186ZM209.134 183.153V182.453H209.134L209.134 183.153ZM205.929 186V186.7H206.551L206.624 186.082L205.929 186ZM202.074 186L201.379 186.082L201.452 186.7H202.074V186ZM198.868 183.153V182.453H198.868L198.868 183.153ZM195.663 186V186.7H196.285L196.358 186.082L195.663 186ZM191.811 186L191.115 186.082L191.188 186.7H191.811V186ZM188.604 183.153V182.453H188.604L188.604 183.153ZM185.399 186V186.7H186.022L186.095 186.082L185.399 186ZM181.547 186L180.852 186.082L180.925 186.7H181.547V186ZM178.342 183.153L178.342 182.453H178.342V183.153ZM175.136 186V186.7H175.758L175.831 186.082L175.136 186ZM171.283 186L170.588 186.082L170.661 186.7H171.283V186ZM168.078 183.153L168.078 182.453H168.078V183.153ZM164.872 186V186.7H165.494L165.567 186.082L164.872 186ZM161.018 186L160.322 186.082L160.395 186.7H161.018V186ZM157.812 183.153V182.453H157.811L157.812 183.153ZM154.606 186V186.7H155.229L155.302 186.082L154.606 186ZM150.754 186L150.059 186.082L150.132 186.7H150.754V186ZM147.549 183.153L147.549 182.453H147.549V183.153ZM144.343 186V186.7H144.965L145.038 186.082L144.343 186ZM140.49 186L139.795 186.082L139.868 186.7H140.49V186ZM137.285 183.153L137.285 182.453H137.285V183.153ZM134.079 186V186.7H134.701L134.774 186.082L134.079 186ZM130.225 186L129.529 186.082L129.602 186.7H130.225V186ZM127.02 183.153L127.02 182.453H127.02V183.153ZM123.813 186V186.7H124.436L124.509 186.082L123.813 186ZM119.963 186L119.268 186.082L119.341 186.7H119.963V186ZM116.758 183.153L116.758 182.453H116.758V183.153ZM113.553 186V186.7H114.175L114.248 186.082L113.553 186ZM109.697 186L109.002 186.082L109.075 186.7H109.697V186ZM106.492 183.153L106.492 182.453H106.492V183.153ZM103.286 186V186.7H103.908L103.981 186.082L103.286 186ZM99.4336 186L98.7384 186.082L98.8114 186.7H99.4336V186ZM96.2285 183.153L96.2285 182.453H96.2285V183.153ZM93.0225 186V186.7H93.6447L93.7176 186.082L93.0225 186ZM89.168 186L88.4728 186.082L88.5458 186.7H89.168V186ZM85.9629 183.153L85.963 182.453H85.9629V183.153ZM82.7568 186V186.7H83.379L83.452 186.082L82.7568 186ZM78.9043 186L78.2091 186.082L78.2821 186.7H78.9043V186ZM75.6992 183.153L75.6993 182.453H75.6992V183.153ZM72.4932 186V186.7H73.1154L73.1883 186.082L72.4932 186ZM68.6406 186L67.9455 186.082L68.0184 186.7H68.6406V186ZM65.4355 183.153L65.4356 182.453H65.4355V183.153ZM62.2305 186V186.7H62.8526L62.9256 186.082L62.2305 186ZM58.377 186L57.6818 186.082L57.7548 186.7H58.377V186ZM55.1719 183.153V182.453H55.1719L55.1719 183.153ZM51.9668 186V186.7H52.589L52.662 186.082L51.9668 186ZM48.1133 186L47.4181 186.082L47.4911 186.7H48.1133V186ZM44.9082 183.153V182.453H44.9082L44.9082 183.153ZM41.7031 186V186.7H42.3253L42.3983 186.082L41.7031 186ZM37.8457 186L37.1505 186.082L37.2235 186.7H37.8457V186ZM34.6406 183.153L34.6407 182.453H34.6406V183.153ZM31.4346 186V186.7H32.0568L32.1297 186.082L31.4346 186ZM27.582 186L26.8869 186.082L26.9598 186.7H27.582V186ZM24.377 183.153L24.377 182.453H24.377V183.153ZM21.1709 186V186.7H21.7931L21.8661 186.082L21.1709 186ZM17.3184 186L16.6232 186.082L16.6962 186.7H17.3184V186ZM14.1133 183.153L14.1133 182.453H14.1133V183.153ZM10.9082 186V186.7H11.5304L11.6034 186.082L10.9082 186ZM0 176H-0.7V176H0ZM0 155.455L-0.133466 154.768L-0.7 154.878V155.455H0ZM5.21973 149.118L5.91973 149.118V149.118H5.21973ZM0 142.779H-0.7V143.356L-0.133431 143.466L0 142.779ZM0 10H-0.7V10H0ZM10 0V-0.7V-0.7V0ZM262 0V0.7C267.136 0.7 271.3 4.86375 271.3 10H272H272.7C272.7 4.09055 267.909 -0.7 262 -0.7V0ZM272 10H271.3V142.779H272H272.7V10H272ZM272 142.779L271.866 142.092C268.57 142.733 266.082 145.634 266.082 149.118H266.782H267.482C267.482 146.317 269.483 143.982 272.134 143.466L272 142.779ZM266.782 149.118L266.082 149.118C266.082 152.602 268.571 155.501 271.866 156.142L272 155.455L272.134 154.768C269.483 154.252 267.482 151.919 267.482 149.118L266.782 149.118ZM272 155.455H271.3V176H272H272.7V155.455H272ZM272 176H271.3C271.3 180.615 267.936 184.445 263.527 185.173L263.641 185.863L263.755 186.554C268.829 185.716 272.7 181.312 272.7 176H272ZM263.641 185.863L264.332 185.752C264.029 183.882 262.41 182.453 260.454 182.453V183.153V183.853C261.711 183.853 262.755 184.772 262.95 185.975L263.641 185.863ZM260.454 183.153L260.454 182.453C258.441 182.453 256.784 183.967 256.554 185.918L257.249 186L257.944 186.082C258.092 184.827 259.16 183.853 260.454 183.853L260.454 183.153ZM257.249 186V185.3H253.394V186V186.7H257.249V186ZM253.394 186L254.089 185.918C253.858 183.967 252.202 182.453 250.188 182.453V183.153V183.853C251.483 183.853 252.55 184.827 252.698 186.082L253.394 186ZM250.188 183.153L250.188 182.453C248.175 182.453 246.519 183.967 246.288 185.918L246.983 186L247.679 186.082C247.827 184.827 248.894 183.853 250.188 183.853L250.188 183.153ZM246.983 186V185.3H243.131V186V186.7H246.983V186ZM243.131 186L243.826 185.918C243.596 183.967 241.938 182.453 239.925 182.453V183.153V183.853C241.219 183.853 242.287 184.827 242.436 186.082L243.131 186ZM239.925 183.153L239.925 182.453C237.912 182.453 236.255 183.967 236.025 185.918L236.72 186L237.415 186.082C237.563 184.827 238.631 183.853 239.925 183.853L239.925 183.153ZM236.72 186V185.3H232.867V186V186.7H236.72V186ZM232.867 186L233.562 185.918C233.332 183.967 231.674 182.453 229.661 182.453V183.153V183.853C230.956 183.853 232.024 184.827 232.172 186.082L232.867 186ZM229.661 183.153L229.661 182.453C227.648 182.453 225.991 183.967 225.761 185.918L226.456 186L227.151 186.082C227.299 184.827 228.367 183.853 229.661 183.853L229.661 183.153ZM226.456 186V185.3H222.604V186V186.7H226.456V186ZM222.604 186L223.299 185.918C223.068 183.967 221.411 182.453 219.397 182.453V183.153V183.853C220.692 183.853 221.76 184.827 221.908 186.082L222.604 186ZM219.397 183.153L219.397 182.453C217.384 182.454 215.728 183.967 215.497 185.918L216.192 186L216.888 186.082C217.036 184.827 218.103 183.853 219.398 183.853L219.397 183.153ZM216.192 186V185.3H212.34V186V186.7H216.192V186ZM212.34 186L213.035 185.918C212.805 183.967 211.147 182.453 209.134 182.453V183.153V183.853C210.428 183.853 211.496 184.827 211.645 186.082L212.34 186ZM209.134 183.153L209.134 182.453C207.121 182.454 205.464 183.967 205.234 185.918L205.929 186L206.624 186.082C206.772 184.827 207.84 183.854 209.134 183.853L209.134 183.153ZM205.929 186V185.3H202.074V186V186.7H205.929V186ZM202.074 186L202.769 185.918C202.539 183.967 200.881 182.453 198.868 182.453V183.153V183.853C200.163 183.853 201.231 184.827 201.379 186.082L202.074 186ZM198.868 183.153L198.868 182.453C196.855 182.454 195.198 183.967 194.968 185.918L195.663 186L196.358 186.082C196.506 184.827 197.574 183.853 198.868 183.853L198.868 183.153ZM195.663 186V185.3H191.811V186V186.7H195.663V186ZM191.811 186L192.506 185.918C192.275 183.967 190.618 182.453 188.604 182.453V183.153V183.853C189.899 183.853 190.967 184.827 191.115 186.082L191.811 186ZM188.604 183.153L188.604 182.453C186.591 182.454 184.935 183.967 184.704 185.918L185.399 186L186.095 186.082C186.243 184.827 187.31 183.853 188.605 183.853L188.604 183.153ZM185.399 186V185.3H181.547V186V186.7H185.399V186ZM181.547 186L182.242 185.918C182.012 183.967 180.355 182.454 178.342 182.453L178.342 183.153L178.342 183.853C179.636 183.854 180.703 184.827 180.852 186.082L181.547 186ZM178.342 183.153V182.453C176.329 182.453 174.671 183.967 174.441 185.918L175.136 186L175.831 186.082C175.979 184.827 177.047 183.853 178.342 183.853V183.153ZM175.136 186V185.3H171.283V186V186.7H175.136V186ZM171.283 186L171.978 185.918C171.748 183.967 170.091 182.454 168.078 182.453L168.078 183.153L168.078 183.853C169.372 183.853 170.44 184.827 170.588 186.082L171.283 186ZM168.078 183.153V182.453C166.065 182.453 164.407 183.967 164.177 185.918L164.872 186L165.567 186.082C165.715 184.827 166.784 183.853 168.078 183.853V183.153ZM164.872 186V185.3H161.018V186V186.7H164.872V186ZM161.018 186L161.713 185.918C161.482 183.967 159.825 182.453 157.812 182.453V183.153V183.853C159.106 183.853 160.174 184.827 160.322 186.082L161.018 186ZM157.812 183.153L157.811 182.453C155.798 182.454 154.142 183.967 153.911 185.918L154.606 186L155.302 186.082C155.45 184.827 156.517 183.854 157.812 183.853L157.812 183.153ZM154.606 186V185.3H150.754V186V186.7H154.606V186ZM150.754 186L151.449 185.918C151.219 183.967 149.562 182.454 147.549 182.453L147.549 183.153L147.549 183.853C148.843 183.853 149.911 184.827 150.059 186.082L150.754 186ZM147.549 183.153V182.453C145.536 182.453 143.878 183.967 143.648 185.918L144.343 186L145.038 186.082C145.186 184.827 146.254 183.853 147.549 183.853V183.153ZM144.343 186V185.3H140.49V186V186.7H144.343V186ZM140.49 186L141.185 185.918C140.955 183.967 139.298 182.454 137.285 182.453L137.285 183.153L137.285 183.853C138.579 183.853 139.647 184.827 139.795 186.082L140.49 186ZM137.285 183.153V182.453C135.272 182.453 133.614 183.967 133.384 185.918L134.079 186L134.774 186.082C134.922 184.827 135.991 183.853 137.285 183.853V183.153ZM134.079 186V185.3H130.225V186V186.7H134.079V186ZM130.225 186L130.92 185.918C130.689 183.967 129.033 182.454 127.02 182.453L127.02 183.153L127.019 183.853C128.314 183.853 129.381 184.827 129.529 186.082L130.225 186ZM127.02 183.153V182.453C125.006 182.453 123.349 183.967 123.118 185.918L123.813 186L124.509 186.082C124.657 184.827 125.725 183.853 127.02 183.853V183.153ZM123.813 186V185.3H119.963V186V186.7H123.813V186ZM119.963 186L120.658 185.918C120.428 183.967 118.771 182.453 116.758 182.453L116.758 183.153L116.758 183.853C118.052 183.853 119.119 184.827 119.268 186.082L119.963 186ZM116.758 183.153V182.453C114.744 182.453 113.088 183.967 112.858 185.918L113.553 186L114.248 186.082C114.396 184.827 115.464 183.853 116.758 183.853V183.153ZM113.553 186V185.3H109.697V186V186.7H113.553V186ZM109.697 186L110.392 185.918C110.162 183.967 108.505 182.453 106.492 182.453L106.492 183.153L106.492 183.853C107.786 183.853 108.854 184.827 109.002 186.082L109.697 186ZM106.492 183.153V182.453C104.479 182.453 102.821 183.967 102.591 185.918L103.286 186L103.981 186.082C104.13 184.827 105.198 183.853 106.492 183.853V183.153ZM103.286 186V185.3H99.4336V186V186.7H103.286V186ZM99.4336 186L100.129 185.918C99.8984 183.967 98.2418 182.453 96.2285 182.453L96.2285 183.153L96.2285 183.853C97.5227 183.853 98.5902 184.827 98.7384 186.082L99.4336 186ZM96.2285 183.153V182.453C94.2154 182.453 92.5577 183.967 92.3273 185.918L93.0225 186L93.7176 186.082C93.8658 184.827 94.934 183.853 96.2285 183.853V183.153ZM93.0225 186V185.3H89.168V186V186.7H93.0225V186ZM89.168 186L89.8631 185.918C89.6328 183.967 87.9761 182.453 85.963 182.453L85.9629 183.153L85.9628 183.853C87.257 183.853 88.3246 184.827 88.4728 186.082L89.168 186ZM85.9629 183.153V182.453C83.9498 182.453 82.2921 183.967 82.0617 185.918L82.7568 186L83.452 186.082C83.6002 184.827 84.6684 183.853 85.9629 183.853V183.153ZM82.7568 186V185.3H78.9043V186V186.7H82.7568V186ZM78.9043 186L79.5995 185.918C79.3691 183.967 77.7125 182.453 75.6993 182.453L75.6992 183.153L75.6992 183.853C76.9934 183.853 78.0609 184.827 78.2091 186.082L78.9043 186ZM75.6992 183.153V182.453C73.6861 182.453 72.0284 183.967 71.798 185.918L72.4932 186L73.1883 186.082C73.3365 184.827 74.4047 183.853 75.6992 183.853V183.153ZM72.4932 186V185.3H68.6406V186V186.7H72.4932V186ZM68.6406 186L69.3358 185.918C69.1054 183.967 67.4488 182.453 65.4356 182.453L65.4355 183.153L65.4355 183.853C66.7297 183.853 67.7972 184.827 67.9455 186.082L68.6406 186ZM65.4355 183.153V182.453C63.4222 182.453 61.7657 183.967 61.5353 185.918L62.2305 186L62.9256 186.082C63.0739 184.827 64.1413 183.853 65.4355 183.853V183.153ZM62.2305 186V185.3H58.377V186V186.7H62.2305V186ZM58.377 186L59.0721 185.918C58.8417 183.967 57.1852 182.453 55.1719 182.453V183.153V183.853C56.4661 183.853 57.5335 184.827 57.6818 186.082L58.377 186ZM55.1719 183.153L55.1719 182.453C53.1585 182.453 51.502 183.967 51.2716 185.918L51.9668 186L52.662 186.082C52.8102 184.827 53.8777 183.853 55.1719 183.853L55.1719 183.153ZM51.9668 186V185.3H48.1133V186V186.7H51.9668V186ZM48.1133 186L48.8084 185.918C48.578 183.967 46.9215 182.453 44.9082 182.453V183.153V183.853C46.2024 183.853 47.2698 184.827 47.4181 186.082L48.1133 186ZM44.9082 183.153L44.9082 182.453C42.8949 182.453 41.2383 183.967 41.008 185.918L41.7031 186L42.3983 186.082C42.5465 184.827 43.614 183.853 44.9082 183.853L44.9082 183.153ZM41.7031 186V185.3H37.8457V186V186.7H41.7031V186ZM37.8457 186L38.5409 185.918C38.3105 183.967 36.6538 182.453 34.6407 182.453L34.6406 183.153L34.6406 183.853C35.9348 183.853 37.0023 184.827 37.1505 186.082L37.8457 186ZM34.6406 183.153V182.453C32.6275 182.453 30.9698 183.967 30.7394 185.918L31.4346 186L32.1297 186.082C32.2779 184.827 33.3461 183.853 34.6406 183.853V183.153ZM31.4346 186V185.3H27.582V186V186.7H31.4346V186ZM27.582 186L28.2772 185.918C28.0468 183.967 26.3902 182.453 24.377 182.453L24.377 183.153L24.3769 183.853C25.6711 183.853 26.7386 184.827 26.8869 186.082L27.582 186ZM24.377 183.153V182.453C22.3639 182.453 20.7061 183.967 20.4757 185.918L21.1709 186L21.8661 186.082C22.0143 184.827 23.0824 183.853 24.377 183.853V183.153ZM21.1709 186V185.3H17.3184V186V186.7H21.1709V186ZM17.3184 186L18.0135 185.918C17.7831 183.967 16.1266 182.453 14.1133 182.453L14.1133 183.153L14.1133 183.853C15.4075 183.853 16.4749 184.827 16.6232 186.082L17.3184 186ZM14.1133 183.153V182.453C12.0999 182.453 10.4434 183.967 10.213 185.918L10.9082 186L11.6034 186.082C11.7516 184.827 12.8191 183.853 14.1133 183.853V183.153ZM10.9082 186V185.3H10V186V186.7H10.9082V186ZM10 186V185.3C4.86375 185.3 0.7 181.136 0.7 176H0H-0.7C-0.7 181.909 4.09055 186.7 10 186.7V186ZM0 176H0.7V155.455H0H-0.7V176H0ZM0 155.455L0.133466 156.142C3.42994 155.502 5.91966 152.603 5.91973 149.118L5.21973 149.118L4.51973 149.118C4.51968 151.919 2.51822 154.253 -0.133466 154.768L0 155.455ZM5.21973 149.118H5.91973C5.91973 145.633 3.4304 142.732 0.133431 142.092L0 142.779L-0.133431 143.466C2.51815 143.981 4.51973 146.317 4.51973 149.118H5.21973ZM0 142.779H0.7V10H0H-0.7V142.779H0ZM0 10H0.7C0.700001 4.86375 4.86375 0.7 10 0.7V0V-0.7C4.09055 -0.7 -0.699999 4.09055 -0.7 10H0ZM10 0V0.7H262V0V-0.7H10V0Z" fill="#666666" fill-opacity="0.18" mask="url(#path-1-inside-1_107_2461)"/>
</svg>
